REM DIRINDEX 1\2,1\3,1\4
REM DIRNAME folder01,folder02,folder03,folder04
TITLE ""
FILE "054 054_TOEFL_3900.mp3" MP3
  TRACK 01 AUDIO
    TITLE "2:cjc151_2322"
    INDEX 01 00:00:00
  TRACK 02 AUDIO
    TITLE "0:"
    INDEX 01 00:01:21
  TRACK 03 AUDIO
    TITLE "3:cjc151_2323"
    INDEX 01 00:02:73
  TRACK 04 AUDIO
    TITLE "0:"
    INDEX 01 00:06:61
  TRACK 05 AUDIO
    TITLE "2:cjc151_2324"
    INDEX 01 00:08:42
  TRACK 06 AUDIO
    TITLE "0:"
    INDEX 01 00:09:51
  TRACK 07 AUDIO
    TITLE "3:cjc151_2325"
    INDEX 01 00:11:31
  TRACK 08 AUDIO
    TITLE "0:"
    INDEX 01 00:15:23
  TRACK 09 AUDIO
    TITLE "2:cjc151_2326"
    INDEX 01 00:17:02
  TRACK 10 AUDIO
    TITLE "0:"
    INDEX 01 00:18:11
  TRACK 11 AUDIO
    TITLE "3:cjc151_2327"
    INDEX 01 00:19:63
  TRACK 12 AUDIO
    TITLE "0:"
    INDEX 01 00:23:42
  TRACK 13 AUDIO
    TITLE "2:cjc151_2328"
    INDEX 01 00:25:21
  TRACK 14 AUDIO
    TITLE "0:"
    INDEX 01 00:26:34
  TRACK 15 AUDIO
    TITLE "3:cjc151_2329"
    INDEX 01 00:28:12
  TRACK 16 AUDIO
    TITLE "0:"
    INDEX 01 00:32:48
  TRACK 17 AUDIO
    TITLE "2:cjc151_2330"
    INDEX 01 00:34:26
  TRACK 18 AUDIO
    TITLE "0:"
    INDEX 01 00:35:23
  TRACK 19 AUDIO
    TITLE "3:cjc151_2331"
    INDEX 01 00:37:01
  TRACK 20 AUDIO
    TITLE "0:"
    INDEX 01 00:41:02
  TRACK 21 AUDIO
    TITLE "2:cjc151_2332"
    INDEX 01 00:42:51
  TRACK 22 AUDIO
    TITLE "0:"
    INDEX 01 00:43:56
  TRACK 23 AUDIO
    TITLE "3:cjc151_2333"
    INDEX 01 00:45:33
  TRACK 24 AUDIO
    TITLE "0:"
    INDEX 01 00:49:29
  TRACK 25 AUDIO
    TITLE "2:cjc151_2334"
    INDEX 01 00:51:09
  TRACK 26 AUDIO
    TITLE "0:"
    INDEX 01 00:52:10
  TRACK 27 AUDIO
    TITLE "3:cjc151_2335"
    INDEX 01 00:53:64
  TRACK 28 AUDIO
    TITLE "0:"
    INDEX 01 00:57:27
  TRACK 29 AUDIO
    TITLE "2:cjc151_2336"
    INDEX 01 00:59:06
  TRACK 30 AUDIO
    TITLE "0:"
    INDEX 01 01:00:33
  TRACK 31 AUDIO
    TITLE "3:cjc151_2337"
    INDEX 01 01:02:12
  TRACK 32 AUDIO
    TITLE "0:"
    INDEX 01 01:05:71
  TRACK 33 AUDIO
    TITLE "2:cjc151_2338"
    INDEX 01 01:07:49
  TRACK 34 AUDIO
    TITLE "0:"
    INDEX 01 01:08:56
  TRACK 35 AUDIO
    TITLE "3:cjc151_2339"
    INDEX 01 01:10:33
  TRACK 36 AUDIO
    TITLE "0:"
    INDEX 01 01:13:49
  TRACK 37 AUDIO
    TITLE "2:cjc151_2340"
    INDEX 01 01:15:29
  TRACK 38 AUDIO
    TITLE "0:"
    INDEX 01 01:16:20
  TRACK 39 AUDIO
    TITLE "3:cjc151_2341"
    INDEX 01 01:18:00
  TRACK 40 AUDIO
    TITLE "0:"
    INDEX 01 01:21:18
  TRACK 41 AUDIO
    TITLE "2:cjc151_2342"
    INDEX 01 01:22:72
  TRACK 42 AUDIO
    TITLE "0:"
    INDEX 01 01:23:71
  TRACK 43 AUDIO
    TITLE "3:cjc151_2343"
    INDEX 01 01:25:49
  TRACK 44 AUDIO
    TITLE "0:"
    INDEX 01 01:28:61
  TRACK 45 AUDIO
    TITLE "2:cjc151_2344"
    INDEX 01 01:30:38
  TRACK 46 AUDIO
    TITLE "0:"
    INDEX 01 01:31:71
  TRACK 47 AUDIO
    TITLE "3:cjc151_2345"
    INDEX 01 01:33:44
  TRACK 48 AUDIO
    TITLE "0:"
    INDEX 01 01:37:21
  TRACK 49 AUDIO
    TITLE "2:cjc151_2346"
    INDEX 01 01:39:00
  TRACK 50 AUDIO
    TITLE "0:"
    INDEX 01 01:39:68
  TRACK 51 AUDIO
    TITLE "3:cjc151_2347"
    INDEX 01 01:41:46
  TRACK 52 AUDIO
    TITLE "0:"
    INDEX 01 01:44:28
  TRACK 53 AUDIO
    TITLE "2:cjc151_2348"
    INDEX 01 01:46:08
  TRACK 54 AUDIO
    TITLE "0:"
    INDEX 01 01:46:74
  TRACK 55 AUDIO
    TITLE "3:cjc151_2349"
    INDEX 01 01:48:50
  TRACK 56 AUDIO
    TITLE "0:"
    INDEX 01 01:51:44
  TRACK 57 AUDIO
    TITLE "2:cjc151_2350"
    INDEX 01 01:53:21
  TRACK 58 AUDIO
    TITLE "0:"
    INDEX 01 01:54:25
  TRACK 59 AUDIO
    TITLE "3:cjc151_2351"
    INDEX 01 01:56:04
  TRACK 60 AUDIO
    TITLE "0:"
    INDEX 01 01:59:71
  TRACK 61 AUDIO
    TITLE "2:cjc151_2352"
    INDEX 01 02:01:50
  TRACK 62 AUDIO
    TITLE "0:"
    INDEX 01 02:02:60
  TRACK 63 AUDIO
    TITLE "3:cjc151_2353"
    INDEX 01 02:04:39
  TRACK 64 AUDIO
    TITLE "0:"
    INDEX 01 02:08:52
  TRACK 65 AUDIO
    TITLE "2:cjc151_2354"
    INDEX 01 02:10:32
  TRACK 66 AUDIO
    TITLE "0:"
    INDEX 01 02:11:25
  TRACK 67 AUDIO
    TITLE "3:cjc151_2355"
    INDEX 01 02:12:74
  TRACK 68 AUDIO
    TITLE "0:"
    INDEX 01 02:16:05
  TRACK 69 AUDIO
    TITLE "2:cjc151_2356"
    INDEX 01 02:17:57
  TRACK 70 AUDIO
    TITLE "0:"
    INDEX 01 02:18:59
  TRACK 71 AUDIO
    TITLE "3:cjc151_2357"
    INDEX 01 02:20:36
  TRACK 72 AUDIO
    TITLE "0:"
    INDEX 01 02:23:52
  TRACK 73 AUDIO
    TITLE "2:cjc151_2358"
    INDEX 01 02:25:31
  TRACK 74 AUDIO
    TITLE "0:"
    INDEX 01 02:26:39
  TRACK 75 AUDIO
    TITLE "3:cjc151_2359"
    INDEX 01 02:28:16
  TRACK 76 AUDIO
    TITLE "0:"
    INDEX 01 02:31:55
  TRACK 77 AUDIO
    TITLE "2:cjc151_2360"
    INDEX 01 02:33:35
  TRACK 78 AUDIO
    TITLE "0:"
    INDEX 01 02:34:34
  TRACK 79 AUDIO
    TITLE "3:cjc151_2361"
    INDEX 01 02:36:13
  TRACK 80 AUDIO
    TITLE "0:"
    INDEX 01 02:40:37
  TRACK 81 AUDIO
    TITLE "2:cjc151_2362"
    INDEX 01 02:42:16
  TRACK 82 AUDIO
    TITLE "0:"
    INDEX 01 02:43:08
  TRACK 83 AUDIO
    TITLE "3:cjc151_2363"
    INDEX 01 02:44:62
  TRACK 84 AUDIO
    TITLE "0:"
    INDEX 01 02:47:62
  TRACK 85 AUDIO
    TITLE "2:cjc151_2364"
    INDEX 01 02:49:49
  TRACK 86 AUDIO
    TITLE "0:"
    INDEX 01 02:50:53
  TRACK 87 AUDIO
    TITLE "3:cjc151_2365"
    INDEX 01 02:52:28
  TRACK 88 AUDIO
    TITLE "0:"
    INDEX 01 02:57:08
